<?xml version="1.0" standalone="no"?>
<!DOCTYPE svg PUBLIC "-//W3C//DTD SVG 20010904//EN"
 "http://www.w3.org/TR/2001/REC-SVG-20010904/DTD/svg10.dtd">
<svg version="1.0" xmlns="http://www.w3.org/2000/svg"
 width="469.000000pt" height="443.000000pt" viewBox="0 0 469.000000 443.000000"
 preserveAspectRatio="xMidYMid meet">

<g transform="translate(0.000000,443.000000) scale(0.100000,-0.100000)"
fill="#000000" stroke="none">
<path d="M2234 4282 c-135 -90 -360 -289 -458 -405 -64 -75 -156 -206 -213
-302 -42 -72 -153 -289 -153 -299 0 -4 -9 -25 -19 -49 -35 -75 -99 -278 -129
-412 -31 -135 -58 -312 -48 -322 2 -3 42 11 88 30 46 19 107 42 136 52 40 13
53 22 57 41 3 13 7 35 10 48 2 13 9 56 15 97 12 83 70 258 142 428 70 167 203
388 309 513 32 37 63 75 71 85 13 18 143 134 245 220 27 23 57 43 65 45 14 3
79 -49 202 -162 69 -64 235 -263 324 -388 90 -128 154 -261 222 -462 110 -322
144 -615 100 -875 -28 -174 -57 -306 -82 -385 -146 -462 -310 -734 -575 -953
-46 -38 -83 -70 -83 -73 0 -18 184 -154 208 -154 8 0 45 24 81 54 243 199 457
529 591 911 63 179 117 426 135 615 7 77 8 437 1 448 -2 4 -10 46 -16 92 -63
465 -332 988 -681 1326 -153 148 -369 304 -419 304 -14 0 -68 -29 -126 -68z
m161 -142 c-3 -5 -22 -10 -41 -10 -19 0 -34 5 -34 10 0 6 18 10 41 10 24 0 38
-4 34 -10z m-829 -952 c-36 -90 -71 -207 -105 -342 -26 -106 -49 -156 -73
-156 -4 0 2 21 15 48 14 26 30 72 37 102 20 88 80 270 111 338 16 35 29 68 29
74 0 6 3 9 6 5 3 -3 -6 -34 -20 -69z m1790 -1015 c-16 -175 -90 -446 -173
-641 -60 -142 -160 -332 -175 -332 -4 0 24 64 62 143 116 238 206 514 271 835
7 34 15 62 17 62 3 0 2 -30 -2 -67z"/>
<path d="M2240 3719 c-76 -15 -187 -76 -249 -138 -95 -95 -149 -238 -137 -366
20 -228 190 -403 425 -437 246 -36 482 121 546 363 55 205 -57 438 -257 532
-113 54 -214 68 -328 46z"/>
<path d="M2095 2634 c-203 -27 -387 -71 -555 -132 -250 -92 -430 -193 -615
-347 -242 -201 -427 -419 -570 -670 -144 -251 -270 -614 -300 -860 -5 -40 -9
-266 -6 -322 1 -18 227 -126 336 -162 176 -57 240 -72 425 -97 172 -23 552 -8
750 30 194 37 362 85 550 159 153 59 151 58 88 98 -29 19 -79 55 -112 82 -33
26 -63 47 -68 47 -5 0 -61 -17 -126 -39 -106 -35 -159 -50 -277 -80 -127 -31
-287 -46 -510 -46 -277 0 -391 17 -625 95 -182 61 -192 66 -186 98 3 15 8 47
11 72 11 77 54 282 70 337 60 200 220 505 364 693 97 126 300 325 431 421 133
97 158 111 300 172 370 158 735 225 1077 199 166 -13 183 -17 376 -78 76 -24
142 -44 146 -44 13 0 21 27 27 89 2 31 7 79 9 107 3 34 1 55 -8 62 -16 13
-192 67 -282 86 -208 45 -513 58 -720 30z m715 -127 c121 -29 180 -51 180 -68
0 -6 -8 -9 -17 -6 -391 127 -829 112 -1327 -47 -44 -14 -75 -22 -70 -17 25 23
306 109 444 135 159 30 225 35 455 31 204 -2 242 -6 335 -28z m-2530 -2066 c0
-11 -3 -11 -15 -1 -8 7 -15 24 -15 39 l1 26 14 -25 c8 -14 14 -31 15 -39z
m1750 -80 c0 -12 -29 -23 -42 -15 -6 4 -5 10 3 15 18 11 39 11 39 0z"/>
<path d="M3605 2218 c-3 -39 -12 -101 -20 -140 l-13 -69 68 -54 c37 -30 99
-88 136 -131 38 -42 99 -110 137 -151 37 -41 75 -89 84 -106 9 -18 41 -66 73
-107 172 -229 319 -610 345 -895 l7 -71 -54 -26 c-175 -85 -568 -163 -847
-167 -201 -3 -476 39 -646 99 -305 108 -515 255 -784 549 -217 237 -302 354
-400 548 -93 184 -133 305 -172 516 -12 61 -15 67 -33 61 -34 -10 -196 -97
-208 -111 -24 -30 29 -266 101 -446 77 -193 219 -427 369 -607 165 -198 490
-488 666 -595 184 -111 411 -203 606 -244 150 -32 248 -40 500 -37 199 2 254
5 355 25 213 41 455 115 605 184 36 16 80 36 99 44 18 8 52 26 74 40 l40 25
-7 128 c-11 212 -51 412 -121 605 -87 238 -209 456 -376 667 -147 184 -409
437 -526 506 l-51 30 -7 -70z m308 -323 c12 -16 -25 12 -81 64 -56 52 -102
101 -102 110 0 16 146 -122 183 -174z m-2287 -447 c9 -18 42 -71 72 -118 163
-249 386 -498 627 -701 126 -106 146 -120 270 -188 129 -72 129 -79 0 -17
-254 124 -643 491 -852 806 -54 82 -126 205 -136 233 -10 28 1 19 19 -15z
m2854 -993 c-12 -13 -31 -26 -42 -28 -15 -4 -10 4 18 33 41 41 63 36 24 -5z"/>
<path d="M3580 1384 c-175 -46 -304 -172 -351 -342 -47 -167 -3 -326 126 -458
69 -70 129 -104 234 -129 89 -21 188 -16 276 14 61 22 205 123 205 145 0 7 12
23 26 37 60 56 99 184 91 299 -8 120 -59 222 -159 323 -105 106 -293 152 -448
111z m228 -19 c89 -21 153 -57 222 -124 185 -181 183 -462 -3 -645 -185 -181
-474 -179 -657 4 -184 184 -183 459 3 642 119 118 273 161 435 123z"/>
<path d="M3994 1148 c54 -74 71 -130 71 -233 0 -83 -3 -96 -34 -160 -19 -38
-54 -90 -78 -116 -48 -51 -54 -66 -20 -48 45 25 116 102 136 149 65 151 43
287 -65 405 l-45 50 35 -47z"/>
<path d="M3710 1053 c-52 -2 -105 -5 -117 -8 -32 -7 -29 -25 3 -25 l27 0 -5
-174 -5 -174 96 -4 c53 -3 101 -3 108 -1 13 5 33 56 33 85 0 26 -33 20 -38 -7
-2 -11 -9 -26 -14 -32 -13 -16 -114 -17 -123 -3 -4 6 -3 40 1 76 l7 66 36 -6
c47 -7 81 2 81 23 0 15 -9 17 -60 13 l-60 -4 0 71 0 71 55 0 c54 0 55 0 55
-30 0 -24 4 -30 21 -30 18 0 20 5 17 47 -2 25 -7 47 -13 48 -5 0 -53 -1 -105
-2z"/>
<path d="M911 1339 c-128 -25 -266 -131 -325 -250 -70 -139 -74 -271 -12 -403
41 -89 129 -184 212 -228 189 -101 424 -66 580 87 185 182 192 454 16 646
-117 127 -294 183 -471 148z"/>
</g>
</svg>
